# xmcd
#
# Track frame offsets: 
#        150
#        20690
#        37195
#        55467
#        66545
#        84042
#        99507
#        114640
#        129725
#        145275
#
# Disc length: 2236 seconds
#
# Revision: 5
# Processed by: cddbd v1.5.1PL0 Copyright (c) Steve Scherf et al.
# Submitted via: ExactAudioCopy v0.90b4
#
DISCID=9308ba0a
DTITLE=Joao Bosco - Comissão de Frente
DYEAR=1982
DGENRE=MPB
TTITLE0=Nação
TTITLE1=A Nível De...
TTITLE2=Querido Diário
TTITLE3=Abigail Caiu Do Céu
TTITLE4=Viena Fica Na 28 De Setembro
TTITLE5=Coisa Feita
TTITLE6=Siameses
TTITLE7=Na Venda
TTITLE8=Galo, Grilo E Pavão
TTITLE9=Comissão De Frente
EXTD=
EXTT0=
EXTT1=
EXTT2=
EXTT3=
EXTT4=
EXTT5=
EXTT6=Nana Caymmi\n
EXTT7=
EXTT8=
EXTT9=
PLAYORDER=
